# xmcd CD database file
# 
# Track frame offsets:
# 	150
# 	14490
# 	28440
# 	40502
# 	55287
# 	65252
# 	77352
# 	92152
# 	127352
# 	141140
# 	152527
# 	171302
# 
# Disc length: 2436 seconds
# 
# Submitted via: Nero 6, 3, 1, 17
# 
# Revision: 0
# Processed by: cddbd v1.5.1PL0 Copyright (c) Steve Scherf et al.
#
DISCID=9f09820c
DTITLE=Various Artist - The Best Of Country Songs, Vol. 1
DYEAR=1900
DGENRE=
TTITLE0=Donna Donna
TTITLE1=500 Miles
TTITLE2=Greenfield
TTITLE3=Crying In The Rain
TTITLE4=Devoted To You
TTITLE5=California Dreaming
TTITLE6=Lemon Tree
TTITLE7=American Pie
TTITLE8=Carry On Till Tomorrow
TTITLE9=Song Sung Blue
TTITLE10=Streets Of London
TTITLE11=Follow Me
EXTD=
EXTT0=
EXTT1=
EXTT2=
EXTT3=
EXTT4=
EXTT5=
EXTT6=
EXTT7=
EXTT8=
EXTT9=
EXTT10=
EXTT11=
PLAYORDER=
